<?xml version="1.0" standalone="no"?>
<!DOCTYPE svg PUBLIC "-//W3C//DTD SVG 20010904//EN"
 "http://www.w3.org/TR/2001/REC-SVG-20010904/DTD/svg10.dtd">
<svg version="1.0" xmlns="http://www.w3.org/2000/svg"
 width="500.000000pt" height="500.000000pt" viewBox="0 0 500.000000 500.000000"
 preserveAspectRatio="xMidYMid meet">

<g transform="translate(0.000000,500.000000) scale(0.100000,-0.100000)"
fill="#000000" stroke="none">
<path d="M0 2500 l0 -2500 2500 0 2500 0 0 2500 0 2500 -2500 0 -2500 0 0
-2500z m3927 420 l64 0 -6 -107 c-8 -142 -10 -151 -40 -159 -46 -11 -56 9 -48
102 l6 84 -80 0 c-83 0 -103 9 -103 45 0 38 20 47 84 41 32 -3 88 -6 123 -6z
m-85 -138 c7 -8 -7 -236 -17 -252 -9 -15 -51 -12 -65 4 -8 11 -9 38 -4 95 l7
81 -86 0 c-77 0 -87 2 -97 21 -9 15 -8 25 3 42 13 21 20 22 133 19 65 -2 122
-7 126 -10z m-1914 -64 c26 -32 213 -410 210 -424 -2 -9 -11 -22 -20 -28 -26
-16 -48 1 -81 62 l-28 52 -115 0 -114 0 -27 -55 c-27 -55 -47 -71 -76 -59 -36
13 -27 43 69 230 53 104 103 199 111 212 15 24 54 30 71 10z m307 -92 c15 -11
22 -11 44 0 41 21 120 17 166 -9 105 -58 114 -237 16 -320 -50 -42 -114 -46
-193 -12 -15 6 -17 -2 -20 -62 -3 -62 -5 -68 -26 -71 -50 -7 -52 3 -52 244 0
202 2 224 18 233 22 14 25 13 47 -3z m592 3 c58 -22 95 -73 107 -146 10 -67
-3 -73 -150 -73 -135 0 -150 -8 -98 -49 33 -26 104 -28 139 -5 35 23 69 15 73
-17 4 -35 -47 -67 -116 -76 -85 -10 -169 34 -198 104 -17 39 -18 121 -3 160
14 37 57 82 94 99 36 16 113 18 152 3z m250 -51 l65 -63 52 57 c55 61 72 70
99 56 29 -15 20 -38 -42 -108 l-59 -66 59 -65 c59 -65 68 -86 47 -107 -23 -23
-45 -12 -103 49 l-58 61 -61 -61 c-62 -62 -82 -71 -104 -49 -21 21 -13 39 50
104 l61 64 -19 22 c-10 13 -38 44 -61 70 -24 26 -43 52 -43 57 0 9 38 41 48
41 2 0 33 -28 69 -62z m-430 -551 c-2 -23 -3 -1 -3 48 0 50 1 68 3 42 2 -26 2
-67 0 -90z m113 123 c0 -5 -5 -10 -11 -10 -5 0 -7 5 -4 10 3 6 8 10 11 10 2 0
4 -4 4 -10z m-669 -19 c13 -11 21 -22 17 -26 -3 -4 -16 3 -27 14 -25 25 -49
27 -79 5 -27 -19 -30 -78 -5 -106 21 -24 65 -23 88 2 10 11 20 18 23 15 3 -3
-3 -14 -13 -25 -28 -31 -88 -27 -114 6 -61 78 34 176 110 115z m622 -22 c22
-2 22 -2 0 -6 -20 -4 -23 -11 -23 -49 0 -37 4 -46 23 -54 22 -10 22 -10 -3 -7
-23 2 -25 7 -28 52 -2 27 -9 53 -15 57 -9 6 -9 8 1 8 6 0 13 10 13 23 l2 22 4
-22 c3 -15 12 -23 26 -24z m-480 -17 c38 -33 9 -102 -43 -102 -44 0 -62 20
-58 65 5 60 53 78 101 37z m127 8 c14 -14 20 -33 20 -65 0 -63 -18 -57 -22 8
-3 46 -6 52 -27 55 -32 5 -44 -10 -52 -66 l-6 -47 -2 63 c0 35 3 61 7 58 4 -2
14 -1 22 5 23 14 38 11 60 -11z m101 10 c10 -6 19 -15 19 -20 0 -6 -8 -5 -19
1 -20 13 -51 6 -51 -11 0 -5 15 -16 34 -24 41 -17 52 -32 35 -52 -15 -18 -70
-15 -77 4 -3 11 0 11 16 1 21 -13 52 -7 52 11 0 6 -16 18 -35 26 -39 16 -47
46 -17 63 21 13 20 13 43 1z m407 -6 c18 -13 22 -24 21 -67 l-2 -52 -6 47 c-8
56 -20 71 -52 66 -21 -3 -24 -9 -27 -55 -4 -73 -22 -67 -22 8 0 47 3 60 13 56
8 -3 20 -1 28 4 19 12 21 11 47 -7z m139 -6 c7 -5 13 -4 16 4 3 7 6 -22 6 -64
1 -57 -3 -81 -15 -92 -18 -19 -65 -21 -82 -4 -19 19 -14 33 6 15 42 -39 80
-10 80 60 -1 64 -12 83 -48 83 -46 0 -66 -52 -33 -85 11 -12 25 -15 45 -11 18
3 27 2 23 -4 -10 -16 -57 -12 -77 7 -32 29 -19 93 22 105 16 5 39 0 57 -14z
m-485 -40 c3 -47 6 -53 27 -56 32 -5 44 10 52 66 l6 47 2 -60 1 -60 -44 -3
c-53 -3 -66 12 -66 77 0 60 18 50 22 -11z m238 -8 c0 -33 -4 -60 -10 -60 -6 0
-10 27 -10 60 0 33 4 60 10 60 6 0 10 -27 10 -60z"/>
<path d="M1855 2530 c-19 -38 -35 -72 -35 -75 0 -3 34 -5 75 -5 41 0 75 2 75
5 0 10 -70 145 -75 145 -3 0 -21 -31 -40 -70z"/>
<path d="M2303 2556 c-41 -19 -53 -43 -53 -109 0 -49 3 -58 31 -81 87 -73 191
10 158 127 -17 63 -75 90 -136 63z"/>
<path d="M2711 2557 c-14 -6 -33 -27 -44 -45 l-19 -32 101 0 c81 0 101 3 101
14 0 28 -13 47 -41 61 -34 18 -66 19 -98 2z"/>
<path d="M2152 2088 c-27 -27 -5 -88 32 -88 29 0 49 22 49 56 0 40 -52 61 -81
32z"/>
</g>
</svg>
